{
    "asset" : {
        "generator" : "Khronos glTF Blender I/O v1.2.75",
        "version" : "2.0"
    },
    "scene" : 0,
    "scenes" : [
        {
            "name" : "Scene",
            "nodes" : [
                0
            ]
        }
    ],
    "nodes" : [
        {
            "mesh" : 0,
            "name" : "Cayan_Tower_Skyscraper_max_convert"
        }
    ],
    "materials" : [
        {
            "doubleSided" : true,
            "emissiveFactor" : [
                0,
                0,
                0
            ],
            "name" : "Tower_day",
            "normalTexture" : {
                "index" : 0,
                "texCoord" : 0
            },
            "pbrMetallicRoughness" : {
                "baseColorTexture" : {
                    "index" : 1,
                    "texCoord" : 0
                },
                "metallicFactor" : 0,
                "roughnessFactor" : 0.43959638476371765
            }
        },
        {
            "doubleSided" : true,
            "emissiveFactor" : [
                0,
                0,
                0
            ],
            "name" : "Elements_day",
            "normalTexture" : {
                "index" : 2,
                "texCoord" : 0
            },
            "pbrMetallicRoughness" : {
                "baseColorTexture" : {
                    "index" : 3,
                    "texCoord" : 0
                },
                "metallicFactor" : 0,
                "roughnessFactor" : 0.43959638476371765
            }
        }
    ],
    "meshes" : [
        {
            "name" : "Cayan_Tower_Skyscraper_max_convert",
            "primitives" : [
                {
                    "attributes" : {
                        "POSITION" : 0,
                        "NORMAL" : 1,
                        "TEXCOORD_0" : 2
                    },
                    "indices" : 3,
                    "material" : 0
                },
                {
                    "attributes" : {
                        "POSITION" : 4,
                        "NORMAL" : 5,
                        "TEXCOORD_0" : 6
                    },
                    "indices" : 7,
                    "material" : 1
                }
            ]
        }
    ],
    "textures" : [
        {
            "source" : 0
        },
        {
            "source" : 1
        },
        {
            "source" : 2
        },
        {
            "source" : 3
        }
    ],
    "images" : [
        {
            "mimeType" : "image/png",
            "name" : "tower_Normal",
            "uri" : "tower_Normal.png"
        },
        {
            "mimeType" : "image/png",
            "name" : "tower_Diffuse-tower_Refract_2",
            "uri" : "tower_Diffuse-tower_Refract_2.png"
        },
        {
            "mimeType" : "image/png",
            "name" : "elements_Normal",
            "uri" : "elements_Normal.png"
        },
        {
            "mimeType" : "image/png",
            "name" : "elements_Diffuse-elements_Refract_2",
            "uri" : "elements_Diffuse-elements_Refract_2.png"
        }
    ],
    "accessors" : [
        {
            "bufferView" : 0,
            "componentType" : 5126,
            "count" : 233268,
            "max" : [
                2637.297119140625,
                30740.978515625,
                3319.88330078125
            ],
            "min" : [
                -3354.413818359375,
                0.00033000000985339284,
                -3319.833251953125
            ],
            "type" : "VEC3"
        },
        {
            "bufferView" : 1,
            "componentType" : 5126,
            "count" : 233268,
            "type" : "VEC3"
        },
        {
            "bufferView" : 2,
            "componentType" : 5126,
            "count" : 233268,
            "type" : "VEC2"
        },
        {
            "bufferView" : 3,
            "componentType" : 5125,
            "count" : 476472,
            "type" : "SCALAR"
        },
        {
            "bufferView" : 4,
            "componentType" : 5126,
            "count" : 484117,
            "max" : [
                3637.297119140625,
                30710.685546875,
                4319.8330078125
            ],
            "min" : [
                -3637.297119140625,
                0.8688399791717529,
                -4319.8330078125
            ],
            "type" : "VEC3"
        },
        {
            "bufferView" : 5,
            "componentType" : 5126,
            "count" : 484117,
            "type" : "VEC3"
        },
        {
            "bufferView" : 6,
            "componentType" : 5126,
            "count" : 484117,
            "type" : "VEC2"
        },
        {
            "bufferView" : 7,
            "componentType" : 5125,
            "count" : 1048362,
            "type" : "SCALAR"
        }
    ],
    "bufferViews" : [
        {
            "buffer" : 0,
            "byteLength" : 2799216,
            "byteOffset" : 0
        },
        {
            "buffer" : 0,
            "byteLength" : 2799216,
            "byteOffset" : 2799216
        },
        {
            "buffer" : 0,
            "byteLength" : 1866144,
            "byteOffset" : 5598432
        },
        {
            "buffer" : 0,
            "byteLength" : 1905888,
            "byteOffset" : 7464576
        },
        {
            "buffer" : 0,
            "byteLength" : 5809404,
            "byteOffset" : 9370464
        },
        {
            "buffer" : 0,
            "byteLength" : 5809404,
            "byteOffset" : 15179868
        },
        {
            "buffer" : 0,
            "byteLength" : 3872936,
            "byteOffset" : 20989272
        },
        {
            "buffer" : 0,
            "byteLength" : 4193448,
            "byteOffset" : 24862208
        }
    ],
    "buffers" : [
        {
            "byteLength" : 29055656,
            "uri" : "Cayan.bin"
        }
    ]
}
