{
    "asset" : {
        "generator" : "Khronos glTF Blender I/O v1.8.19",
        "version" : "2.0"
    },
    "scene" : 0,
    "scenes" : [
        {
            "name" : "Scene",
            "nodes" : [
                0,
                1,
                2,
                3,
                4,
                5,
                6,
                7
            ]
        }
    ],
    "nodes" : [
        {
            "mesh" : 0,
            "name" : "01b1"
        },
        {
            "mesh" : 1,
            "name" : "02g"
        },
        {
            "mesh" : 2,
            "name" : "03"
        },
        {
            "mesh" : 3,
            "name" : "04f"
        },
        {
            "mesh" : 4,
            "name" : "05f"
        },
        {
            "mesh" : 5,
            "name" : "06f"
        },
        {
            "mesh" : 6,
            "name" : "07f"
        },
        {
            "mesh" : 7,
            "name" : "08f"
        }
    ],
    "materials" : [
        {
            "doubleSided" : true,
            "name" : "Material.001",
            "pbrMetallicRoughness" : {
                "baseColorTexture" : {
                    "index" : 0
                },
                "metallicFactor" : 0,
                "roughnessFactor" : 0.5
            }
        },
        {
            "doubleSided" : true,
            "name" : "Material.002",
            "pbrMetallicRoughness" : {
                "baseColorTexture" : {
                    "index" : 1
                },
                "metallicFactor" : 0,
                "roughnessFactor" : 0.5
            }
        },
        {
            "doubleSided" : true,
            "name" : "Material.003",
            "pbrMetallicRoughness" : {
                "baseColorTexture" : {
                    "index" : 2
                },
                "metallicFactor" : 0,
                "roughnessFactor" : 0.5
            }
        },
        {
            "doubleSided" : true,
            "name" : "Material.004",
            "pbrMetallicRoughness" : {
                "baseColorTexture" : {
                    "index" : 3
                },
                "metallicFactor" : 0,
                "roughnessFactor" : 0.5
            }
        },
        {
            "doubleSided" : true,
            "name" : "Material.005",
            "pbrMetallicRoughness" : {
                "baseColorTexture" : {
                    "index" : 4
                },
                "metallicFactor" : 0,
                "roughnessFactor" : 0.5
            }
        },
        {
            "doubleSided" : true,
            "name" : "Material.006",
            "pbrMetallicRoughness" : {
                "baseColorTexture" : {
                    "index" : 5
                },
                "metallicFactor" : 0,
                "roughnessFactor" : 0.5
            }
        },
        {
            "doubleSided" : true,
            "name" : "Material.007",
            "pbrMetallicRoughness" : {
                "baseColorTexture" : {
                    "index" : 6
                },
                "metallicFactor" : 0,
                "roughnessFactor" : 0.5
            }
        },
        {
            "doubleSided" : true,
            "name" : "Material.008",
            "pbrMetallicRoughness" : {
                "baseColorTexture" : {
                    "index" : 7
                },
                "metallicFactor" : 0,
                "roughnessFactor" : 0.5
            }
        }
    ],
    "meshes" : [
        {
            "name" : "Mesh.003",
            "primitives" : [
                {
                    "attributes" : {
                        "POSITION" : 0,
                        "NORMAL" : 1,
                        "TEXCOORD_0" : 2
                    },
                    "indices" : 3,
                    "material" : 0
                }
            ]
        },
        {
            "name" : "Mesh.005",
            "primitives" : [
                {
                    "attributes" : {
                        "POSITION" : 4,
                        "NORMAL" : 5,
                        "TEXCOORD_0" : 6
                    },
                    "indices" : 7,
                    "material" : 1
                }
            ]
        },
        {
            "name" : "Mesh.007",
            "primitives" : [
                {
                    "attributes" : {
                        "POSITION" : 8,
                        "NORMAL" : 9,
                        "TEXCOORD_0" : 10
                    },
                    "indices" : 11,
                    "material" : 2
                }
            ]
        },
        {
            "name" : "Mesh.009",
            "primitives" : [
                {
                    "attributes" : {
                        "POSITION" : 12,
                        "NORMAL" : 13,
                        "TEXCOORD_0" : 14
                    },
                    "indices" : 15,
                    "material" : 3
                }
            ]
        },
        {
            "name" : "Mesh.011",
            "primitives" : [
                {
                    "attributes" : {
                        "POSITION" : 16,
                        "NORMAL" : 17,
                        "TEXCOORD_0" : 18
                    },
                    "indices" : 19,
                    "material" : 4
                }
            ]
        },
        {
            "name" : "Mesh.013",
            "primitives" : [
                {
                    "attributes" : {
                        "POSITION" : 20,
                        "NORMAL" : 21,
                        "TEXCOORD_0" : 22
                    },
                    "indices" : 23,
                    "material" : 5
                }
            ]
        },
        {
            "name" : "Mesh.015",
            "primitives" : [
                {
                    "attributes" : {
                        "POSITION" : 24,
                        "NORMAL" : 25,
                        "TEXCOORD_0" : 26
                    },
                    "indices" : 27,
                    "material" : 6
                }
            ]
        },
        {
            "name" : "Mesh.017",
            "primitives" : [
                {
                    "attributes" : {
                        "POSITION" : 28,
                        "NORMAL" : 29,
                        "TEXCOORD_0" : 30
                    },
                    "indices" : 31,
                    "material" : 7
                }
            ]
        }
    ],
    "textures" : [
        {
            "sampler" : 0,
            "source" : 0
        },
        {
            "sampler" : 0,
            "source" : 1
        },
        {
            "sampler" : 0,
            "source" : 2
        },
        {
            "sampler" : 0,
            "source" : 3
        },
        {
            "sampler" : 0,
            "source" : 4
        },
        {
            "sampler" : 0,
            "source" : 5
        },
        {
            "sampler" : 0,
            "source" : 6
        },
        {
            "sampler" : 0,
            "source" : 7
        }
    ],
    "images" : [
        {
            "mimeType" : "image/png",
            "name" : "01b1Ambient-Occlusion-_MR_",
            "uri" : "01b1Ambient-Occlusion-_MR_.png"
        },
        {
            "mimeType" : "image/png",
            "name" : "02gAmbient-Occlusion-_MR_",
            "uri" : "02gAmbient-Occlusion-_MR_.png"
        },
        {
            "mimeType" : "image/png",
            "name" : "03Ambient-Occlusion-_MR_",
            "uri" : "03Ambient-Occlusion-_MR_.png"
        },
        {
            "mimeType" : "image/png",
            "name" : "04fAmbient-Occlusion-_MR_",
            "uri" : "04fAmbient-Occlusion-_MR_.png"
        },
        {
            "mimeType" : "image/png",
            "name" : "05fAmbient-Occlusion-_MR_",
            "uri" : "05fAmbient-Occlusion-_MR_.png"
        },
        {
            "mimeType" : "image/png",
            "name" : "06fAmbient-Occlusion-_MR_",
            "uri" : "06fAmbient-Occlusion-_MR_.png"
        },
        {
            "mimeType" : "image/png",
            "name" : "07fAmbient-Occlusion-_MR_",
            "uri" : "07fAmbient-Occlusion-_MR_.png"
        },
        {
            "mimeType" : "image/png",
            "name" : "08fAmbient-Occlusion-_MR_",
            "uri" : "08fAmbient-Occlusion-_MR_.png"
        }
    ],
    "accessors" : [
        {
            "bufferView" : 0,
            "componentType" : 5126,
            "count" : 2691,
            "max" : [
                17.941619873046875,
                4.220000267028809,
                22.601261138916016
            ],
            "min" : [
                -19.01853370666504,
                0,
                -18.140684127807617
            ],
            "type" : "VEC3"
        },
        {
            "bufferView" : 1,
            "componentType" : 5126,
            "count" : 2691,
            "type" : "VEC3"
        },
        {
            "bufferView" : 2,
            "componentType" : 5126,
            "count" : 2691,
            "type" : "VEC2"
        },
        {
            "bufferView" : 3,
            "componentType" : 5123,
            "count" : 4314,
            "type" : "SCALAR"
        },
        {
            "bufferView" : 4,
            "componentType" : 5126,
            "count" : 4929,
            "max" : [
                17.74771499633789,
                8.269999504089355,
                22.60171127319336
            ],
            "min" : [
                -18.832292556762695,
                4.220000267028809,
                -18.348390579223633
            ],
            "type" : "VEC3"
        },
        {
            "bufferView" : 5,
            "componentType" : 5126,
            "count" : 4929,
            "type" : "VEC3"
        },
        {
            "bufferView" : 6,
            "componentType" : 5126,
            "count" : 4929,
            "type" : "VEC2"
        },
        {
            "bufferView" : 7,
            "componentType" : 5123,
            "count" : 7554,
            "type" : "SCALAR"
        },
        {
            "bufferView" : 8,
            "componentType" : 5126,
            "count" : 4881,
            "max" : [
                17.74771499633789,
                12.320000648498535,
                22.60161590576172
            ],
            "min" : [
                -18.832551956176758,
                8.269999504089355,
                -18.348379135131836
            ],
            "type" : "VEC3"
        },
        {
            "bufferView" : 9,
            "componentType" : 5126,
            "count" : 4881,
            "type" : "VEC3"
        },
        {
            "bufferView" : 10,
            "componentType" : 5126,
            "count" : 4881,
            "type" : "VEC2"
        },
        {
            "bufferView" : 11,
            "componentType" : 5123,
            "count" : 7383,
            "type" : "SCALAR"
        },
        {
            "bufferView" : 12,
            "componentType" : 5126,
            "count" : 8150,
            "max" : [
                17.74771499633789,
                15.720001220703125,
                22.601375579833984
            ],
            "min" : [
                -18.45256805419922,
                12.319999694824219,
                -18.34868049621582
            ],
            "type" : "VEC3"
        },
        {
            "bufferView" : 13,
            "componentType" : 5126,
            "count" : 8150,
            "type" : "VEC3"
        },
        {
            "bufferView" : 14,
            "componentType" : 5126,
            "count" : 8150,
            "type" : "VEC2"
        },
        {
            "bufferView" : 15,
            "componentType" : 5123,
            "count" : 11196,
            "type" : "SCALAR"
        },
        {
            "bufferView" : 16,
            "componentType" : 5126,
            "count" : 2785,
            "max" : [
                18.647533416748047,
                19.119998931884766,
                22.601375579833984
            ],
            "min" : [
                -18.45256805419922,
                15.719999313354492,
                -18.148366928100586
            ],
            "type" : "VEC3"
        },
        {
            "bufferView" : 17,
            "componentType" : 5126,
            "count" : 2785,
            "type" : "VEC3"
        },
        {
            "bufferView" : 18,
            "componentType" : 5126,
            "count" : 2785,
            "type" : "VEC2"
        },
        {
            "bufferView" : 19,
            "componentType" : 5123,
            "count" : 4077,
            "type" : "SCALAR"
        },
        {
            "bufferView" : 20,
            "componentType" : 5126,
            "count" : 3428,
            "max" : [
                18.297523498535156,
                22.520000457763672,
                18.449867248535156
            ],
            "min" : [
                -17.11256217956543,
                19.119998931884766,
                -18.14836311340332
            ],
            "type" : "VEC3"
        },
        {
            "bufferView" : 21,
            "componentType" : 5126,
            "count" : 3428,
            "type" : "VEC3"
        },
        {
            "bufferView" : 22,
            "componentType" : 5126,
            "count" : 3428,
            "type" : "VEC2"
        },
        {
            "bufferView" : 23,
            "componentType" : 5123,
            "count" : 4533,
            "type" : "SCALAR"
        },
        {
            "bufferView" : 24,
            "componentType" : 5126,
            "count" : 2154,
            "max" : [
                17.747447967529297,
                25.920001983642578,
                18.449867248535156
            ],
            "min" : [
                -17.11256217956543,
                22.51999855041504,
                -16.698320388793945
            ],
            "type" : "VEC3"
        },
        {
            "bufferView" : 25,
            "componentType" : 5126,
            "count" : 2154,
            "type" : "VEC3"
        },
        {
            "bufferView" : 26,
            "componentType" : 5126,
            "count" : 2154,
            "type" : "VEC2"
        },
        {
            "bufferView" : 27,
            "componentType" : 5123,
            "count" : 3177,
            "type" : "SCALAR"
        },
        {
            "bufferView" : 28,
            "componentType" : 5126,
            "count" : 1338,
            "max" : [
                17.747516632080078,
                29.31999969482422,
                18.449867248535156
            ],
            "min" : [
                -14.018495559692383,
                25.919998168945312,
                -14.948358535766602
            ],
            "type" : "VEC3"
        },
        {
            "bufferView" : 29,
            "componentType" : 5126,
            "count" : 1338,
            "type" : "VEC3"
        },
        {
            "bufferView" : 30,
            "componentType" : 5126,
            "count" : 1338,
            "type" : "VEC2"
        },
        {
            "bufferView" : 31,
            "componentType" : 5123,
            "count" : 1947,
            "type" : "SCALAR"
        }
    ],
    "bufferViews" : [
        {
            "buffer" : 0,
            "byteLength" : 32292,
            "byteOffset" : 0
        },
        {
            "buffer" : 0,
            "byteLength" : 32292,
            "byteOffset" : 32292
        },
        {
            "buffer" : 0,
            "byteLength" : 21528,
            "byteOffset" : 64584
        },
        {
            "buffer" : 0,
            "byteLength" : 8628,
            "byteOffset" : 86112
        },
        {
            "buffer" : 0,
            "byteLength" : 59148,
            "byteOffset" : 94740
        },
        {
            "buffer" : 0,
            "byteLength" : 59148,
            "byteOffset" : 153888
        },
        {
            "buffer" : 0,
            "byteLength" : 39432,
            "byteOffset" : 213036
        },
        {
            "buffer" : 0,
            "byteLength" : 15108,
            "byteOffset" : 252468
        },
        {
            "buffer" : 0,
            "byteLength" : 58572,
            "byteOffset" : 267576
        },
        {
            "buffer" : 0,
            "byteLength" : 58572,
            "byteOffset" : 326148
        },
        {
            "buffer" : 0,
            "byteLength" : 39048,
            "byteOffset" : 384720
        },
        {
            "buffer" : 0,
            "byteLength" : 14766,
            "byteOffset" : 423768
        },
        {
            "buffer" : 0,
            "byteLength" : 97800,
            "byteOffset" : 438536
        },
        {
            "buffer" : 0,
            "byteLength" : 97800,
            "byteOffset" : 536336
        },
        {
            "buffer" : 0,
            "byteLength" : 65200,
            "byteOffset" : 634136
        },
        {
            "buffer" : 0,
            "byteLength" : 22392,
            "byteOffset" : 699336
        },
        {
            "buffer" : 0,
            "byteLength" : 33420,
            "byteOffset" : 721728
        },
        {
            "buffer" : 0,
            "byteLength" : 33420,
            "byteOffset" : 755148
        },
        {
            "buffer" : 0,
            "byteLength" : 22280,
            "byteOffset" : 788568
        },
        {
            "buffer" : 0,
            "byteLength" : 8154,
            "byteOffset" : 810848
        },
        {
            "buffer" : 0,
            "byteLength" : 41136,
            "byteOffset" : 819004
        },
        {
            "buffer" : 0,
            "byteLength" : 41136,
            "byteOffset" : 860140
        },
        {
            "buffer" : 0,
            "byteLength" : 27424,
            "byteOffset" : 901276
        },
        {
            "buffer" : 0,
            "byteLength" : 9066,
            "byteOffset" : 928700
        },
        {
            "buffer" : 0,
            "byteLength" : 25848,
            "byteOffset" : 937768
        },
        {
            "buffer" : 0,
            "byteLength" : 25848,
            "byteOffset" : 963616
        },
        {
            "buffer" : 0,
            "byteLength" : 17232,
            "byteOffset" : 989464
        },
        {
            "buffer" : 0,
            "byteLength" : 6354,
            "byteOffset" : 1006696
        },
        {
            "buffer" : 0,
            "byteLength" : 16056,
            "byteOffset" : 1013052
        },
        {
            "buffer" : 0,
            "byteLength" : 16056,
            "byteOffset" : 1029108
        },
        {
            "buffer" : 0,
            "byteLength" : 10704,
            "byteOffset" : 1045164
        },
        {
            "buffer" : 0,
            "byteLength" : 3894,
            "byteOffset" : 1055868
        }
    ],
    "samplers" : [
        {
            "magFilter" : 9729,
            "minFilter" : 9987
        }
    ],
    "buffers" : [
        {
            "byteLength" : 1059764,
            "uri" : "08f.bin"
        }
    ]
}
