{
    "asset" : {
        "generator" : "Khronos glTF Blender I/O v1.8.19",
        "version" : "2.0"
    },
    "scene" : 0,
    "scenes" : [
        {
            "name" : "Scene",
            "nodes" : [
                0,
                1
            ]
        }
    ],
    "nodes" : [
        {
            "mesh" : 0,
            "name" : "01b1"
        },
        {
            "mesh" : 1,
            "name" : "02g"
        }
    ],
    "materials" : [
        {
            "doubleSided" : true,
            "name" : "Material.011",
            "pbrMetallicRoughness" : {
                "baseColorTexture" : {
                    "index" : 0
                },
                "metallicFactor" : 0,
                "roughnessFactor" : 0.5
            }
        },
        {
            "doubleSided" : true,
            "name" : "Material.009",
            "pbrMetallicRoughness" : {
                "baseColorTexture" : {
                    "index" : 1
                },
                "metallicFactor" : 0,
                "roughnessFactor" : 0.5
            }
        }
    ],
    "meshes" : [
        {
            "name" : "Mesh.003",
            "primitives" : [
                {
                    "attributes" : {
                        "POSITION" : 0,
                        "NORMAL" : 1,
                        "TEXCOORD_0" : 2
                    },
                    "indices" : 3,
                    "material" : 0
                }
            ]
        },
        {
            "name" : "Mesh.005",
            "primitives" : [
                {
                    "attributes" : {
                        "POSITION" : 4,
                        "NORMAL" : 5,
                        "TEXCOORD_0" : 6
                    },
                    "indices" : 7,
                    "material" : 1
                }
            ]
        }
    ],
    "textures" : [
        {
            "sampler" : 0,
            "source" : 0
        },
        {
            "sampler" : 0,
            "source" : 1
        }
    ],
    "images" : [
        {
            "mimeType" : "image/png",
            "name" : "01b1Ambient-Occlusion-_MR_",
            "uri" : "01b1Ambient-Occlusion-_MR_.png"
        },
        {
            "mimeType" : "image/png",
            "name" : "02gAmbient-Occlusion-_MR_",
            "uri" : "02gAmbient-Occlusion-_MR_.png"
        }
    ],
    "accessors" : [
        {
            "bufferView" : 0,
            "componentType" : 5126,
            "count" : 2800,
            "max" : [
                17.941619873046875,
                5.199999809265137,
                27.654319763183594
            ],
            "min" : [
                -19.01853370666504,
                0,
                -18.140684127807617
            ],
            "type" : "VEC3"
        },
        {
            "bufferView" : 1,
            "componentType" : 5126,
            "count" : 2800,
            "type" : "VEC3"
        },
        {
            "bufferView" : 2,
            "componentType" : 5126,
            "count" : 2800,
            "type" : "VEC2"
        },
        {
            "bufferView" : 3,
            "componentType" : 5123,
            "count" : 4434,
            "type" : "SCALAR"
        },
        {
            "bufferView" : 4,
            "componentType" : 5126,
            "count" : 4546,
            "max" : [
                17.74771499633789,
                8.269999504089355,
                22.60171127319336
            ],
            "min" : [
                -18.832292556762695,
                4.220000267028809,
                -18.348390579223633
            ],
            "type" : "VEC3"
        },
        {
            "bufferView" : 5,
            "componentType" : 5126,
            "count" : 4546,
            "type" : "VEC3"
        },
        {
            "bufferView" : 6,
            "componentType" : 5126,
            "count" : 4546,
            "type" : "VEC2"
        },
        {
            "bufferView" : 7,
            "componentType" : 5123,
            "count" : 7509,
            "type" : "SCALAR"
        }
    ],
    "bufferViews" : [
        {
            "buffer" : 0,
            "byteLength" : 33600,
            "byteOffset" : 0
        },
        {
            "buffer" : 0,
            "byteLength" : 33600,
            "byteOffset" : 33600
        },
        {
            "buffer" : 0,
            "byteLength" : 22400,
            "byteOffset" : 67200
        },
        {
            "buffer" : 0,
            "byteLength" : 8868,
            "byteOffset" : 89600
        },
        {
            "buffer" : 0,
            "byteLength" : 54552,
            "byteOffset" : 98468
        },
        {
            "buffer" : 0,
            "byteLength" : 54552,
            "byteOffset" : 153020
        },
        {
            "buffer" : 0,
            "byteLength" : 36368,
            "byteOffset" : 207572
        },
        {
            "buffer" : 0,
            "byteLength" : 15018,
            "byteOffset" : 243940
        }
    ],
    "samplers" : [
        {
            "magFilter" : 9729,
            "minFilter" : 9987
        }
    ],
    "buffers" : [
        {
            "byteLength" : 258960,
            "uri" : "02g.bin"
        }
    ]
}
