{
    "asset" : {
        "generator" : "Khronos glTF Blender I/O v1.8.19",
        "version" : "2.0"
    },
    "scene" : 0,
    "scenes" : [
        {
            "name" : "Scene",
            "nodes" : [
                0,
                1,
                2,
                3,
                4,
                5
            ]
        }
    ],
    "nodes" : [
        {
            "mesh" : 0,
            "name" : "01b1"
        },
        {
            "mesh" : 1,
            "name" : "02g"
        },
        {
            "mesh" : 2,
            "name" : "03"
        },
        {
            "mesh" : 3,
            "name" : "04f"
        },
        {
            "mesh" : 4,
            "name" : "05f"
        },
        {
            "mesh" : 5,
            "name" : "06f"
        }
    ],
    "materials" : [
        {
            "doubleSided" : true,
            "name" : "Material.011",
            "pbrMetallicRoughness" : {
                "baseColorTexture" : {
                    "index" : 0
                },
                "metallicFactor" : 0,
                "roughnessFactor" : 0.5
            }
        },
        {
            "doubleSided" : true,
            "name" : "Material.009",
            "pbrMetallicRoughness" : {
                "baseColorTexture" : {
                    "index" : 1
                },
                "metallicFactor" : 0,
                "roughnessFactor" : 0.5
            }
        },
        {
            "doubleSided" : true,
            "name" : "Material.008",
            "pbrMetallicRoughness" : {
                "baseColorTexture" : {
                    "index" : 2
                },
                "metallicFactor" : 0,
                "roughnessFactor" : 0.5
            }
        },
        {
            "doubleSided" : true,
            "name" : "Material.007",
            "pbrMetallicRoughness" : {
                "baseColorTexture" : {
                    "index" : 3
                },
                "metallicFactor" : 0,
                "roughnessFactor" : 0.5
            }
        },
        {
            "doubleSided" : true,
            "name" : "Material.006",
            "pbrMetallicRoughness" : {
                "baseColorTexture" : {
                    "index" : 4
                },
                "metallicFactor" : 0,
                "roughnessFactor" : 0.5
            }
        },
        {
            "doubleSided" : true,
            "name" : "Material.005",
            "pbrMetallicRoughness" : {
                "baseColorTexture" : {
                    "index" : 5
                },
                "metallicFactor" : 0,
                "roughnessFactor" : 0.5
            }
        }
    ],
    "meshes" : [
        {
            "name" : "Mesh.003",
            "primitives" : [
                {
                    "attributes" : {
                        "POSITION" : 0,
                        "NORMAL" : 1,
                        "TEXCOORD_0" : 2
                    },
                    "indices" : 3,
                    "material" : 0
                }
            ]
        },
        {
            "name" : "Mesh.005",
            "primitives" : [
                {
                    "attributes" : {
                        "POSITION" : 4,
                        "NORMAL" : 5,
                        "TEXCOORD_0" : 6
                    },
                    "indices" : 7,
                    "material" : 1
                }
            ]
        },
        {
            "name" : "Mesh.007",
            "primitives" : [
                {
                    "attributes" : {
                        "POSITION" : 8,
                        "NORMAL" : 9,
                        "TEXCOORD_0" : 10
                    },
                    "indices" : 11,
                    "material" : 2
                }
            ]
        },
        {
            "name" : "Mesh.009",
            "primitives" : [
                {
                    "attributes" : {
                        "POSITION" : 12,
                        "NORMAL" : 13,
                        "TEXCOORD_0" : 14
                    },
                    "indices" : 15,
                    "material" : 3
                }
            ]
        },
        {
            "name" : "Mesh.011",
            "primitives" : [
                {
                    "attributes" : {
                        "POSITION" : 16,
                        "NORMAL" : 17,
                        "TEXCOORD_0" : 18
                    },
                    "indices" : 19,
                    "material" : 4
                }
            ]
        },
        {
            "name" : "Mesh.013",
            "primitives" : [
                {
                    "attributes" : {
                        "POSITION" : 20,
                        "NORMAL" : 21,
                        "TEXCOORD_0" : 22
                    },
                    "indices" : 23,
                    "material" : 5
                }
            ]
        }
    ],
    "textures" : [
        {
            "sampler" : 0,
            "source" : 0
        },
        {
            "sampler" : 0,
            "source" : 1
        },
        {
            "sampler" : 0,
            "source" : 2
        },
        {
            "sampler" : 0,
            "source" : 3
        },
        {
            "sampler" : 0,
            "source" : 4
        },
        {
            "sampler" : 0,
            "source" : 5
        }
    ],
    "images" : [
        {
            "mimeType" : "image/png",
            "name" : "01b1Ambient-Occlusion-_MR_",
            "uri" : "01b1Ambient-Occlusion-_MR_.png"
        },
        {
            "mimeType" : "image/png",
            "name" : "02gAmbient-Occlusion-_MR_",
            "uri" : "02gAmbient-Occlusion-_MR_.png"
        },
        {
            "mimeType" : "image/png",
            "name" : "03Ambient-Occlusion-_MR_",
            "uri" : "03Ambient-Occlusion-_MR_.png"
        },
        {
            "mimeType" : "image/png",
            "name" : "04fAmbient-Occlusion-_MR_",
            "uri" : "04fAmbient-Occlusion-_MR_.png"
        },
        {
            "mimeType" : "image/png",
            "name" : "05fAmbient-Occlusion-_MR_",
            "uri" : "05fAmbient-Occlusion-_MR_.png"
        },
        {
            "mimeType" : "image/png",
            "name" : "06fAmbient-Occlusion-_MR_",
            "uri" : "06fAmbient-Occlusion-_MR_.png"
        }
    ],
    "accessors" : [
        {
            "bufferView" : 0,
            "componentType" : 5126,
            "count" : 2800,
            "max" : [
                17.941619873046875,
                5.199999809265137,
                27.654319763183594
            ],
            "min" : [
                -19.01853370666504,
                0,
                -18.140684127807617
            ],
            "type" : "VEC3"
        },
        {
            "bufferView" : 1,
            "componentType" : 5126,
            "count" : 2800,
            "type" : "VEC3"
        },
        {
            "bufferView" : 2,
            "componentType" : 5126,
            "count" : 2800,
            "type" : "VEC2"
        },
        {
            "bufferView" : 3,
            "componentType" : 5123,
            "count" : 4434,
            "type" : "SCALAR"
        },
        {
            "bufferView" : 4,
            "componentType" : 5126,
            "count" : 4546,
            "max" : [
                17.74771499633789,
                8.269999504089355,
                22.60171127319336
            ],
            "min" : [
                -18.832292556762695,
                4.220000267028809,
                -18.348390579223633
            ],
            "type" : "VEC3"
        },
        {
            "bufferView" : 5,
            "componentType" : 5126,
            "count" : 4546,
            "type" : "VEC3"
        },
        {
            "bufferView" : 6,
            "componentType" : 5126,
            "count" : 4546,
            "type" : "VEC2"
        },
        {
            "bufferView" : 7,
            "componentType" : 5123,
            "count" : 7509,
            "type" : "SCALAR"
        },
        {
            "bufferView" : 8,
            "componentType" : 5126,
            "count" : 4947,
            "max" : [
                17.74771499633789,
                12.320000648498535,
                22.60161590576172
            ],
            "min" : [
                -18.832551956176758,
                8.269999504089355,
                -18.348379135131836
            ],
            "type" : "VEC3"
        },
        {
            "bufferView" : 9,
            "componentType" : 5126,
            "count" : 4947,
            "type" : "VEC3"
        },
        {
            "bufferView" : 10,
            "componentType" : 5126,
            "count" : 4947,
            "type" : "VEC2"
        },
        {
            "bufferView" : 11,
            "componentType" : 5123,
            "count" : 7527,
            "type" : "SCALAR"
        },
        {
            "bufferView" : 12,
            "componentType" : 5126,
            "count" : 8264,
            "max" : [
                17.74771499633789,
                15.720001220703125,
                22.601375579833984
            ],
            "min" : [
                -18.45256805419922,
                12.319999694824219,
                -18.34868049621582
            ],
            "type" : "VEC3"
        },
        {
            "bufferView" : 13,
            "componentType" : 5126,
            "count" : 8264,
            "type" : "VEC3"
        },
        {
            "bufferView" : 14,
            "componentType" : 5126,
            "count" : 8264,
            "type" : "VEC2"
        },
        {
            "bufferView" : 15,
            "componentType" : 5123,
            "count" : 11376,
            "type" : "SCALAR"
        },
        {
            "bufferView" : 16,
            "componentType" : 5126,
            "count" : 2789,
            "max" : [
                18.647533416748047,
                19.119998931884766,
                22.601375579833984
            ],
            "min" : [
                -18.45256805419922,
                15.719999313354492,
                -18.148366928100586
            ],
            "type" : "VEC3"
        },
        {
            "bufferView" : 17,
            "componentType" : 5126,
            "count" : 2789,
            "type" : "VEC3"
        },
        {
            "bufferView" : 18,
            "componentType" : 5126,
            "count" : 2789,
            "type" : "VEC2"
        },
        {
            "bufferView" : 19,
            "componentType" : 5123,
            "count" : 4077,
            "type" : "SCALAR"
        },
        {
            "bufferView" : 20,
            "componentType" : 5126,
            "count" : 3428,
            "max" : [
                18.297523498535156,
                22.520000457763672,
                18.449867248535156
            ],
            "min" : [
                -17.11256217956543,
                19.119998931884766,
                -18.14836311340332
            ],
            "type" : "VEC3"
        },
        {
            "bufferView" : 21,
            "componentType" : 5126,
            "count" : 3428,
            "type" : "VEC3"
        },
        {
            "bufferView" : 22,
            "componentType" : 5126,
            "count" : 3428,
            "type" : "VEC2"
        },
        {
            "bufferView" : 23,
            "componentType" : 5123,
            "count" : 4533,
            "type" : "SCALAR"
        }
    ],
    "bufferViews" : [
        {
            "buffer" : 0,
            "byteLength" : 33600,
            "byteOffset" : 0
        },
        {
            "buffer" : 0,
            "byteLength" : 33600,
            "byteOffset" : 33600
        },
        {
            "buffer" : 0,
            "byteLength" : 22400,
            "byteOffset" : 67200
        },
        {
            "buffer" : 0,
            "byteLength" : 8868,
            "byteOffset" : 89600
        },
        {
            "buffer" : 0,
            "byteLength" : 54552,
            "byteOffset" : 98468
        },
        {
            "buffer" : 0,
            "byteLength" : 54552,
            "byteOffset" : 153020
        },
        {
            "buffer" : 0,
            "byteLength" : 36368,
            "byteOffset" : 207572
        },
        {
            "buffer" : 0,
            "byteLength" : 15018,
            "byteOffset" : 243940
        },
        {
            "buffer" : 0,
            "byteLength" : 59364,
            "byteOffset" : 258960
        },
        {
            "buffer" : 0,
            "byteLength" : 59364,
            "byteOffset" : 318324
        },
        {
            "buffer" : 0,
            "byteLength" : 39576,
            "byteOffset" : 377688
        },
        {
            "buffer" : 0,
            "byteLength" : 15054,
            "byteOffset" : 417264
        },
        {
            "buffer" : 0,
            "byteLength" : 99168,
            "byteOffset" : 432320
        },
        {
            "buffer" : 0,
            "byteLength" : 99168,
            "byteOffset" : 531488
        },
        {
            "buffer" : 0,
            "byteLength" : 66112,
            "byteOffset" : 630656
        },
        {
            "buffer" : 0,
            "byteLength" : 22752,
            "byteOffset" : 696768
        },
        {
            "buffer" : 0,
            "byteLength" : 33468,
            "byteOffset" : 719520
        },
        {
            "buffer" : 0,
            "byteLength" : 33468,
            "byteOffset" : 752988
        },
        {
            "buffer" : 0,
            "byteLength" : 22312,
            "byteOffset" : 786456
        },
        {
            "buffer" : 0,
            "byteLength" : 8154,
            "byteOffset" : 808768
        },
        {
            "buffer" : 0,
            "byteLength" : 41136,
            "byteOffset" : 816924
        },
        {
            "buffer" : 0,
            "byteLength" : 41136,
            "byteOffset" : 858060
        },
        {
            "buffer" : 0,
            "byteLength" : 27424,
            "byteOffset" : 899196
        },
        {
            "buffer" : 0,
            "byteLength" : 9066,
            "byteOffset" : 926620
        }
    ],
    "samplers" : [
        {
            "magFilter" : 9729,
            "minFilter" : 9987
        }
    ],
    "buffers" : [
        {
            "byteLength" : 935688,
            "uri" : "06f.bin"
        }
    ]
}
