{
    "asset" : {
        "generator" : "Khronos glTF Blender I/O v1.8.19",
        "version" : "2.0"
    },
    "scene" : 0,
    "scenes" : [
        {
            "name" : "Scene",
            "nodes" : [
                0,
                1,
                2
            ]
        }
    ],
    "nodes" : [
        {
            "mesh" : 0,
            "name" : "01b1"
        },
        {
            "mesh" : 1,
            "name" : "02g"
        },
        {
            "mesh" : 2,
            "name" : "03"
        }
    ],
    "materials" : [
        {
            "doubleSided" : true,
            "name" : "Material.001",
            "pbrMetallicRoughness" : {
                "baseColorTexture" : {
                    "index" : 0
                },
                "metallicFactor" : 0,
                "roughnessFactor" : 0.5
            }
        },
        {
            "doubleSided" : true,
            "name" : "Material.002",
            "pbrMetallicRoughness" : {
                "baseColorTexture" : {
                    "index" : 1
                },
                "metallicFactor" : 0,
                "roughnessFactor" : 0.5
            }
        },
        {
            "doubleSided" : true,
            "name" : "Material.003",
            "pbrMetallicRoughness" : {
                "baseColorTexture" : {
                    "index" : 2
                },
                "metallicFactor" : 0,
                "roughnessFactor" : 0.5
            }
        }
    ],
    "meshes" : [
        {
            "name" : "Mesh.003",
            "primitives" : [
                {
                    "attributes" : {
                        "POSITION" : 0,
                        "NORMAL" : 1,
                        "TEXCOORD_0" : 2
                    },
                    "indices" : 3,
                    "material" : 0
                }
            ]
        },
        {
            "name" : "Mesh.005",
            "primitives" : [
                {
                    "attributes" : {
                        "POSITION" : 4,
                        "NORMAL" : 5,
                        "TEXCOORD_0" : 6
                    },
                    "indices" : 7,
                    "material" : 1
                }
            ]
        },
        {
            "name" : "Mesh.007",
            "primitives" : [
                {
                    "attributes" : {
                        "POSITION" : 8,
                        "NORMAL" : 9,
                        "TEXCOORD_0" : 10
                    },
                    "indices" : 11,
                    "material" : 2
                }
            ]
        }
    ],
    "textures" : [
        {
            "sampler" : 0,
            "source" : 0
        },
        {
            "sampler" : 0,
            "source" : 1
        },
        {
            "sampler" : 0,
            "source" : 2
        }
    ],
    "images" : [
        {
            "mimeType" : "image/png",
            "name" : "01b1Ambient-Occlusion-_MR_",
            "uri" : "01b1Ambient-Occlusion-_MR_.png"
        },
        {
            "mimeType" : "image/png",
            "name" : "02gAmbient-Occlusion-_MR_",
            "uri" : "02gAmbient-Occlusion-_MR_.png"
        },
        {
            "mimeType" : "image/png",
            "name" : "03Ambient-Occlusion-_MR_",
            "uri" : "03Ambient-Occlusion-_MR_.png"
        }
    ],
    "accessors" : [
        {
            "bufferView" : 0,
            "componentType" : 5126,
            "count" : 2691,
            "max" : [
                17.941619873046875,
                4.220000267028809,
                22.601261138916016
            ],
            "min" : [
                -19.01853370666504,
                0,
                -18.140684127807617
            ],
            "type" : "VEC3"
        },
        {
            "bufferView" : 1,
            "componentType" : 5126,
            "count" : 2691,
            "type" : "VEC3"
        },
        {
            "bufferView" : 2,
            "componentType" : 5126,
            "count" : 2691,
            "type" : "VEC2"
        },
        {
            "bufferView" : 3,
            "componentType" : 5123,
            "count" : 4314,
            "type" : "SCALAR"
        },
        {
            "bufferView" : 4,
            "componentType" : 5126,
            "count" : 4926,
            "max" : [
                17.74771499633789,
                8.269999504089355,
                22.60171127319336
            ],
            "min" : [
                -18.832292556762695,
                4.220000267028809,
                -18.348390579223633
            ],
            "type" : "VEC3"
        },
        {
            "bufferView" : 5,
            "componentType" : 5126,
            "count" : 4926,
            "type" : "VEC3"
        },
        {
            "bufferView" : 6,
            "componentType" : 5126,
            "count" : 4926,
            "type" : "VEC2"
        },
        {
            "bufferView" : 7,
            "componentType" : 5123,
            "count" : 7554,
            "type" : "SCALAR"
        },
        {
            "bufferView" : 8,
            "componentType" : 5126,
            "count" : 4881,
            "max" : [
                17.74771499633789,
                12.320000648498535,
                22.60161590576172
            ],
            "min" : [
                -18.832551956176758,
                8.269999504089355,
                -18.348379135131836
            ],
            "type" : "VEC3"
        },
        {
            "bufferView" : 9,
            "componentType" : 5126,
            "count" : 4881,
            "type" : "VEC3"
        },
        {
            "bufferView" : 10,
            "componentType" : 5126,
            "count" : 4881,
            "type" : "VEC2"
        },
        {
            "bufferView" : 11,
            "componentType" : 5123,
            "count" : 7383,
            "type" : "SCALAR"
        }
    ],
    "bufferViews" : [
        {
            "buffer" : 0,
            "byteLength" : 32292,
            "byteOffset" : 0
        },
        {
            "buffer" : 0,
            "byteLength" : 32292,
            "byteOffset" : 32292
        },
        {
            "buffer" : 0,
            "byteLength" : 21528,
            "byteOffset" : 64584
        },
        {
            "buffer" : 0,
            "byteLength" : 8628,
            "byteOffset" : 86112
        },
        {
            "buffer" : 0,
            "byteLength" : 59112,
            "byteOffset" : 94740
        },
        {
            "buffer" : 0,
            "byteLength" : 59112,
            "byteOffset" : 153852
        },
        {
            "buffer" : 0,
            "byteLength" : 39408,
            "byteOffset" : 212964
        },
        {
            "buffer" : 0,
            "byteLength" : 15108,
            "byteOffset" : 252372
        },
        {
            "buffer" : 0,
            "byteLength" : 58572,
            "byteOffset" : 267480
        },
        {
            "buffer" : 0,
            "byteLength" : 58572,
            "byteOffset" : 326052
        },
        {
            "buffer" : 0,
            "byteLength" : 39048,
            "byteOffset" : 384624
        },
        {
            "buffer" : 0,
            "byteLength" : 14766,
            "byteOffset" : 423672
        }
    ],
    "samplers" : [
        {
            "magFilter" : 9729,
            "minFilter" : 9987
        }
    ],
    "buffers" : [
        {
            "byteLength" : 438440,
            "uri" : "03.bin"
        }
    ]
}
